<svg xmlns="http://www.w3.org/2000/svg" viewBox="0 0 24 24" fill="none">
  <!-- crown -->
  <rect x="9" y="1.4" width="6" height="2.4" rx="0.6" fill="#2ea3f2"/>
  <g stroke="#0d6fb8" stroke-width="0.5">
    <path d="M10.2 1.6 V3.6"/>
    <path d="M11.1 1.6 V3.6"/>
    <path d="M12 1.6 V3.6"/>
    <path d="M12.9 1.6 V3.6"/>
    <path d="M13.8 1.6 V3.6"/>
  </g>
  <rect x="10.8" y="3.6" width="2.4" height="2" rx="0.4" fill="#0d6fb8"/>
  <!-- speed lines -->
  <path d="M4.6 5.4 L6.5 6.9" stroke="#f5b301" stroke-width="1.4" stroke-linecap="round"/>
  <path d="M6.4 4.3 L7.5 5.2" stroke="#f7d24a" stroke-width="1.3" stroke-linecap="round"/>
  <path d="M19.4 5.4 L17.5 6.9" stroke="#f5b301" stroke-width="1.4" stroke-linecap="round"/>
  <path d="M17.6 4.3 L16.5 5.2" stroke="#f7d24a" stroke-width="1.3" stroke-linecap="round"/>
  <!-- body -->
  <circle cx="12" cy="14" r="8.2" fill="#2ea3f2"/>
  <circle cx="12" cy="14" r="6" fill="#f7f1ec"/>
  <!-- hour ticks -->
  <g stroke="#1b1b1b" stroke-width="0.7" stroke-linecap="round">
    <path d="M12 8.4 V9.6"/>
    <path d="M14.8 9.15 L14.2 10.19"/>
    <path d="M16.85 11.2 L15.81 11.8"/>
    <path d="M17.6 14 H16.4"/>
    <path d="M16.85 16.8 L15.81 16.2"/>
    <path d="M14.8 18.85 L14.2 17.81"/>
    <path d="M12 19.6 V18.4"/>
    <path d="M9.2 18.85 L9.8 17.81"/>
    <path d="M7.15 16.8 L8.19 16.2"/>
    <path d="M6.4 14 H7.6"/>
    <path d="M7.15 11.2 L8.19 11.8"/>
    <path d="M9.2 9.15 L9.8 10.19"/>
  </g>
  <!-- hands -->
  <g stroke="#1b1b1b" stroke-width="1" stroke-linecap="round">
    <path d="M12 14 V9.8"/>
    <path d="M12 14 L15.2 17.2"/>
  </g>
  <circle cx="12" cy="14" r="1" fill="#1b1b1b"/>
</svg>
